<svg xmlns="http://www.w3.org/2000/svg" viewBox="0 0 210 65" width="210" height="65" role="img" aria-labelledby="logo-light-title">
  <title id="logo-light-title">go-tui logo — light background</title>
  <!-- Block-grid letters with box-drawing-style ASCII shadow. Light theme palette. -->

  <!-- ═══ Shadow layer ═══ -->
  <g fill="#d42568" opacity="0.25">
    <rect x="22" y="17" width="18" height="3"/>
    <rect x="17" y="22" width="8" height="3"/>
    <rect x="17" y="27" width="8" height="3"/>
    <rect x="17" y="32" width="8" height="3"/><rect x="32" y="32" width="8" height="3"/>
    <rect x="17" y="37" width="8" height="3"/><rect x="37" y="37" width="8" height="3"/>
    <rect x="17" y="42" width="8" height="3"/><rect x="37" y="42" width="8" height="3"/>
    <rect x="22" y="47" width="18" height="3"/>
  </g>
  <g fill="#d42568" opacity="0.25">
    <rect x="58" y="17" width="18" height="3"/>
    <rect x="53" y="22" width="8" height="3"/><rect x="73" y="22" width="8" height="3"/>
    <rect x="53" y="27" width="8" height="3"/><rect x="73" y="27" width="8" height="3"/>
    <rect x="53" y="32" width="8" height="3"/><rect x="73" y="32" width="8" height="3"/>
    <rect x="53" y="37" width="8" height="3"/><rect x="73" y="37" width="8" height="3"/>
    <rect x="53" y="42" width="8" height="3"/><rect x="73" y="42" width="8" height="3"/>
    <rect x="58" y="47" width="18" height="3"/>
  </g>
  <rect x="89" y="32" width="18" height="3" fill="#638b0c" opacity="0.25"/>
  <g fill="#2f9eb8" opacity="0.25">
    <rect x="115" y="17" width="28" height="3"/>
    <rect x="125" y="22" width="8" height="3"/>
    <rect x="125" y="27" width="8" height="3"/>
    <rect x="125" y="32" width="8" height="3"/>
    <rect x="125" y="37" width="8" height="3"/>
    <rect x="125" y="42" width="8" height="3"/>
    <rect x="125" y="47" width="8" height="3"/>
  </g>
  <g fill="#2f9eb8" opacity="0.25">
    <rect x="151" y="17" width="8" height="3"/><rect x="171" y="17" width="8" height="3"/>
    <rect x="151" y="22" width="8" height="3"/><rect x="171" y="22" width="8" height="3"/>
    <rect x="151" y="27" width="8" height="3"/><rect x="171" y="27" width="8" height="3"/>
    <rect x="151" y="32" width="8" height="3"/><rect x="171" y="32" width="8" height="3"/>
    <rect x="151" y="37" width="8" height="3"/><rect x="171" y="37" width="8" height="3"/>
    <rect x="151" y="42" width="8" height="3"/><rect x="171" y="42" width="8" height="3"/>
    <rect x="156" y="47" width="18" height="3"/>
  </g>
  <g fill="#2f9eb8" opacity="0.25">
    <rect x="187" y="17" width="8" height="3"/>
    <rect x="187" y="22" width="8" height="3"/>
    <rect x="187" y="27" width="8" height="3"/>
    <rect x="187" y="32" width="8" height="3"/>
    <rect x="187" y="37" width="8" height="3"/>
    <rect x="187" y="42" width="8" height="3"/>
    <rect x="187" y="47" width="8" height="3"/>
  </g>

  <!-- ███ Main layer ███ -->
  <g fill="#d42568">
    <rect x="19" y="14" width="19" height="4"/>
    <rect x="14" y="19" width="9" height="4"/>
    <rect x="14" y="24" width="9" height="4"/>
    <rect x="14" y="29" width="9" height="4"/><rect x="29" y="29" width="9" height="4"/>
    <rect x="14" y="34" width="9" height="4"/><rect x="34" y="34" width="9" height="4"/>
    <rect x="14" y="39" width="9" height="4"/><rect x="34" y="39" width="9" height="4"/>
    <rect x="19" y="44" width="19" height="4"/>
  </g>
  <g fill="#d42568">
    <rect x="55" y="14" width="19" height="4"/>
    <rect x="50" y="19" width="9" height="4"/><rect x="70" y="19" width="9" height="4"/>
    <rect x="50" y="24" width="9" height="4"/><rect x="70" y="24" width="9" height="4"/>
    <rect x="50" y="29" width="9" height="4"/><rect x="70" y="29" width="9" height="4"/>
    <rect x="50" y="34" width="9" height="4"/><rect x="70" y="34" width="9" height="4"/>
    <rect x="50" y="39" width="9" height="4"/><rect x="70" y="39" width="9" height="4"/>
    <rect x="55" y="44" width="19" height="4"/>
  </g>
  <rect x="86" y="29" width="19" height="4" fill="#638b0c"/>
  <g fill="#2f9eb8">
    <rect x="112" y="14" width="29" height="4"/>
    <rect x="122" y="19" width="9" height="4"/>
    <rect x="122" y="24" width="9" height="4"/>
    <rect x="122" y="29" width="9" height="4"/>
    <rect x="122" y="34" width="9" height="4"/>
    <rect x="122" y="39" width="9" height="4"/>
    <rect x="122" y="44" width="9" height="4"/>
  </g>
  <g fill="#2f9eb8">
    <rect x="148" y="14" width="9" height="4"/><rect x="168" y="14" width="9" height="4"/>
    <rect x="148" y="19" width="9" height="4"/><rect x="168" y="19" width="9" height="4"/>
    <rect x="148" y="24" width="9" height="4"/><rect x="168" y="24" width="9" height="4"/>
    <rect x="148" y="29" width="9" height="4"/><rect x="168" y="29" width="9" height="4"/>
    <rect x="148" y="34" width="9" height="4"/><rect x="168" y="34" width="9" height="4"/>
    <rect x="148" y="39" width="9" height="4"/><rect x="168" y="39" width="9" height="4"/>
    <rect x="153" y="44" width="19" height="4"/>
  </g>
  <g fill="#2f9eb8">
    <rect x="184" y="14" width="9" height="4"/>
    <rect x="184" y="19" width="9" height="4"/>
    <rect x="184" y="24" width="9" height="4"/>
    <rect x="184" y="29" width="9" height="4"/>
    <rect x="184" y="34" width="9" height="4"/>
    <rect x="184" y="39" width="9" height="4"/>
    <rect x="184" y="44" width="9" height="4"/>
  </g>
</svg>
